# xmcd
#
# Track frame offsets:
# 150
# 11103
# 26383
# 42727
# 60701
# 84640
# 99009
# 119861
# 136539
# 150527
# 167436
# 187685
# 199156
# 214850
# 230639
#
# Disc length: 3313 seconds
#
#
# Revision: 1
# Processed by: cddbd v1.5.2PL0 Copyright (c) Steve Scherf et al.
# Submitted via: FreeRIP 2.96 
#
DISCID=c10cef0f
DTITLE=The Blues Cowgirls - Ask Any Woman...
DYEAR=2004
DGENRE=blues
TTITLE0=Don't Cry Sister
TTITLE1=If Wishes Were Horses
TTITLE2=Ask Any Woman
TTITLE3=Just Enough
TTITLE4=Angel From Montgomery
TTITLE5=Prop Me Up Beside The Jukebox
TTITLE6=Fall Down
TTITLE7=Light On Tonight
TTITLE8=I Don't Know
TTITLE9=Gone At Last
TTITLE10=Feeling Good
TTITLE11=Operator
TTITLE12=Do The Mudstep
TTITLE13=She Can't Turn Back
TTITLE14=I'd Like To Be A Cowgirl
EXTD=Australian artist
EXTT0=
EXTT1=
EXTT2=
EXTT3=
EXTT4=
EXTT5=
EXTT6=
EXTT7=
EXTT8=
EXTT9=
EXTT10=
EXTT11=
EXTT12=
EXTT13=
EXTT14=
PLAYORDER=
